<?xml version="1.0" encoding="utf-8"?>
<!-- Generator: Adobe Illustrator 19.2.1, SVG Export Plug-In . SVG Version: 6.00 Build 0)  -->
<svg version="1.1" id="Layer_1" xmlns="http://www.w3.org/2000/svg" xmlns:xlink="http://www.w3.org/1999/xlink" x="0px" y="0px"
	 viewBox="0 0 342.6 348.7" style="enable-background:new 0 0 342.6 348.7;" xml:space="preserve">
<style type="text/css">
	.st0{fill:#55C1F0;}
	.st1{fill:#37A3DC;}
	.st2{fill:#2897D4;}
</style>
<path class="st0" d="M29.4,33c15.3,1.6,43.2,6.5,72.9,24.3s47.1,40.1,55.7,52.9c0,79.5,0,159,0,238.6
	c-12.3-14.9-33.5-36.7-65.7-54.3c-24.1-13.1-46.4-19.5-62.9-22.9C29.4,192,29.4,112.5,29.4,33"/>
<path class="st0" d="M315.1,33c-15.3,1.6-43.2,6.5-72.9,24.3s-47.1,40.1-55.7,52.9c0,79.5,0,159,0,238.6
	c12.3-14.9,33.5-36.7,65.7-54.3c24.1-13.1,46.4-19.5,62.9-22.9C315.1,192,315.1,112.5,315.1,33"/>
<path class="st1" d="M269.7,24.3C240,42.1,222.6,64.4,214,77.1c0,0.1,0,0.3,0,0.4c9.2-9.5,21-19.6,36-28.6
	c29.7-17.8,57.6-22.7,72.9-24.3c0,72.9,0,145.9,0,218.8c7.2-2.1,13.8-3.7,19.7-4.9c0-79.5,0-159,0-238.6
	C327.3,1.6,299.4,6.5,269.7,24.3z"/>
<path class="st1" d="M72.9,24.3c29.7,17.8,47.1,40.1,55.7,52.9c0,0.1,0,0.3,0,0.4c-9.2-9.5-21-19.6-36-28.6
	C62.9,31.2,35,26.3,19.7,24.7c0,72.9,0,145.9,0,218.8c-7.2-2.1-13.8-3.7-19.7-4.9C0,159,0,79.5,0,0C15.3,1.6,43.2,6.5,72.9,24.3z"/>
<rect x="166.5" y="111.5" class="st2" width="10" height="237.1"/>
</svg>
