<svg id="Layer_1" data-name="Layer 1" xmlns="http://www.w3.org/2000/svg" viewBox="0 0 348.37 146.58"><defs><style>.cls-1{fill:#42423f;}.cls-2{fill:#fff;}</style></defs><title>hit logo</title><path class="cls-1" d="M180.39,122.42q-12,12.48-21.85,18.32a39,39,0,0,1-20.17,5.84q-11.64,0-19.58-10.26t-7.94-30a148.45,148.45,0,0,1,2-21.4Q98.14,86.12,94.8,86.32q-6.25,32.55-21.88,46.41T37.56,146.58q-14.6,0-24.07-6.76T4,126.76q0-4.64,7.05-10.6t9.72-6q3.85,0,3.85,8.29,0,20.42,13.71,20.42,10.06,0,16.72-11.24T65.65,90.36Q53.83,92,42.2,101.9q-0.79-1.08-1.38-8.48Q51.2,82,68.3,77.44q3.4-16,8.63-26t26.53-31.07q-10.26,4-16.77,4a32.85,32.85,0,0,1-10.6-2.27,32.33,32.33,0,0,0-10.21-2.27A17.41,17.41,0,0,0,52.16,25.9Q46.84,32,46.84,38.28t6.71,11.54q3.06,1.87,3.06,3.55,0,3-3.95,7.35t-7.4,4.39q-3.85,0-7.1-5.47A23.2,23.2,0,0,1,34.9,47.55q0-14.6,14.3-29.29T77.61,3.56q3.06,0,11.84,2.52t11.93,2.52q6.31,0,12.33-5.52Q121.21,7,121.21,8q0,1.38-6,7.35t-9.79,17q-3.84,11-8.06,41.22a189.15,189.15,0,0,0,19.81-1.78,157.31,157.31,0,0,1,9.72-25.74,234.1,234.1,0,0,1,12-21.06q6.75-10.6,10.36-13t15.29-5.42q11.69-3.06,11.79-3.06,1.18,0,1.18.59,0,1.48-4.43,7.65T160.35,34a218.23,218.23,0,0,0-14.11,34.17q10.66-1.78,21.81-9.47a2.64,2.64,0,0,1,1.58,1.73,31.17,31.17,0,0,1,.3,5.67q-8.47,10.26-27.26,14.6-4.05,19.25-4.05,27.23,0,9.66,4.23,15.33a13.43,13.43,0,0,0,11.33,5.67,21.19,21.19,0,0,0,11.48-3.68q5.76-3.68,14.73-14.17v11.34Z"/><path class="cls-1" d="M228.82,122.32q-23.08,24.26-34.52,24.26-6.31,0-10.65-6.46t-4.34-16.23q0-21,14.2-58.19l25.05-5.23h1.18l-9.86,30.87q-6.12,19.14-6.12,27.32a8.94,8.94,0,0,0,1.43,5.28,4.27,4.27,0,0,0,3.6,2,13.21,13.21,0,0,0,7.74-2.81q3.9-2.81,12.28-12.18v11.34Zm-2-100.41q0,23.67-17.46,23.67a21.6,21.6,0,0,1-14.5-5.13,71.61,71.61,0,0,0,8.88-19.53q7.79,4.83,12.53,4.83A17.71,17.71,0,0,0,226.85,21.91Z"/><path class="cls-1" d="M285.64,122.32q-12.43,12.33-21.5,18.2t-17.26,5.87a16.33,16.33,0,0,1-13.76-7.15q-5.28-7.15-5.28-18.79,0-10.26,5.06-27.09l4.18-14.93-7.57.39,3.16-15.49,9.38-.39,9.26-30.77,26.35-5.41-10.2,34.31,13.93-.79-3.26,15.19-15.3,1.18-6.57,22.1q-3.42,11.52-3.42,18.33a11.75,11.75,0,0,0,2.32,7.55,7.3,7.3,0,0,0,6,2.91,18.15,18.15,0,0,0,10-3.21q4.94-3.2,14.53-13.37v11.34Z"/><path class="cls-1" d="M315.92,64.52q6.81-1.78,13.71-2.91a83.38,83.38,0,0,1,8.29-1.13,0.8,0.8,0,0,1,1,.79,6.8,6.8,0,0,1-.79,3.05A26.39,26.39,0,0,0,336.53,73q0,5.13,5.92,14t5.91,16.48q0,15.09-14.45,29.1t-29.94,14A22.15,22.15,0,0,1,291.75,143q-5.52-3.55-5.52-7.59,0-2.37,5.47-9t7.84-6.61q3.16,0,5.62,8.09t8.48,8.09q6,0,11.29-5.57t5.28-12q0-6.21-6.7-16.57t-8.88-17.36a263,263,0,0,1-29,37.78h-2.27v-8.88Q307.53,87.7,315.92,64.52Z"/><path class="cls-2" d="M176.36,119.35q-12,12.48-21.85,18.32a39,39,0,0,1-20.17,5.84q-11.64,0-19.58-10.26t-7.94-30a148.45,148.45,0,0,1,2-21.4q-14.73,1.18-18.07,1.38-6.25,32.55-21.88,46.41T33.53,143.51q-14.6,0-24.07-6.76T0,123.69q0-4.64,7.05-10.6t9.72-6q3.85,0,3.85,8.29,0,20.42,13.71,20.42,10.06,0,16.72-11.24T61.62,87.29Q49.8,89,38.17,98.83q-0.79-1.08-1.38-8.48,10.38-11.44,27.47-16,3.4-16,8.63-26T99.42,17.26q-10.26,4-16.77,4A32.85,32.85,0,0,1,72.05,19a32.33,32.33,0,0,0-10.21-2.27,17.41,17.41,0,0,0-13.71,6.07q-5.33,6.07-5.33,12.38t6.71,11.54q3.06,1.87,3.06,3.55,0,3-3.95,7.35T41.23,62q-3.85,0-7.1-5.47a23.2,23.2,0,0,1-3.25-12.08q0-14.6,14.3-29.29T73.58,0.49q3.06,0,11.84,2.52T97.35,5.52q6.31,0,12.33-5.52,7.49,3.95,7.5,4.93,0,1.38-6,7.35t-9.79,17q-3.84,11-8.06,41.22a189.15,189.15,0,0,0,19.81-1.78A157.31,157.31,0,0,1,122.9,43a234.1,234.1,0,0,1,12-21.06q6.75-10.6,10.36-13t15.29-5.42Q172.22,0.5,172.32.49q1.18,0,1.18.59,0,1.48-4.43,7.65t-12.75,22.2A218.23,218.23,0,0,0,142.22,65.1q10.66-1.78,21.81-9.47a2.64,2.64,0,0,1,1.58,1.73,31.17,31.17,0,0,1,.3,5.67q-8.47,10.26-27.26,14.6-4.05,19.25-4.05,27.23,0,9.66,4.23,15.33a13.43,13.43,0,0,0,11.33,5.67,21.19,21.19,0,0,0,11.48-3.68q5.76-3.68,14.73-14.17v11.34Z"/><path class="cls-2" d="M224.79,119.25q-23.08,24.26-34.52,24.26-6.31,0-10.65-6.46t-4.34-16.23q0-21,14.2-58.19l25.05-5.23h1.18l-9.86,30.87q-6.12,19.14-6.12,27.32a8.94,8.94,0,0,0,1.43,5.28,4.27,4.27,0,0,0,3.6,2,13.21,13.21,0,0,0,7.74-2.81q3.9-2.81,12.28-12.18v11.34Zm-2-100.41q0,23.67-17.46,23.67a21.6,21.6,0,0,1-14.5-5.13,71.61,71.61,0,0,0,8.88-19.53q7.79,4.83,12.53,4.83A17.71,17.71,0,0,0,222.82,18.84Z"/><path class="cls-2" d="M281.61,119.25q-12.43,12.33-21.5,18.2t-17.26,5.87a16.33,16.33,0,0,1-13.76-7.15q-5.28-7.15-5.28-18.79,0-10.26,5.06-27.09L233,75.36l-7.57.39,3.16-15.49,9.38-.39,9.26-30.77,26.35-5.41L263.43,58l13.93-.79L274.1,72.4l-15.3,1.18-6.57,22.1q-3.42,11.52-3.42,18.33a11.75,11.75,0,0,0,2.32,7.55,7.3,7.3,0,0,0,6,2.91,18.15,18.15,0,0,0,10-3.21q4.94-3.2,14.53-13.37v11.34Z"/><path class="cls-2" d="M311.89,61.45q6.81-1.78,13.71-2.91a83.38,83.38,0,0,1,8.29-1.13,0.8,0.8,0,0,1,1,.79,6.8,6.8,0,0,1-.79,3.05,26.39,26.39,0,0,0-1.58,8.67q0,5.13,5.92,14t5.91,16.48q0,15.09-14.45,29.1t-29.94,14A22.15,22.15,0,0,1,287.72,140q-5.52-3.55-5.52-7.59,0-2.37,5.47-9t7.84-6.61q3.16,0,5.62,8.09t8.48,8.09q6,0,11.29-5.57t5.28-12q0-6.21-6.7-16.57T310.6,81.47a263,263,0,0,1-29,37.78h-2.27v-8.88Q303.5,84.63,311.89,61.45Z"/></svg>